<svg width="67" height="68" viewBox="0 0 67 68" fill="none" xmlns="http://www.w3.org/2000/svg">
<path d="M0 62.71C0 60.0811 0.925238 57.4201 2.77571 54.727C4.30714 54.727 5.77476 54.7911 7.17857 54.9194C7.17857 52.6752 9.18857 49.0203 13.2086 43.9547C17.2286 38.8892 20.6424 35.4587 23.45 33.6634C20.5148 31.7397 17.069 28.4375 13.1129 23.7567C9.22048 19.0118 7.24238 15.421 7.17857 12.9844C6.34905 13.2409 4.84952 13.3692 2.68 13.3692C1.02095 11.702 0.191428 9.07308 0.191428 5.48232C0.191428 4.13578 0.319048 2.94955 0.574286 1.92362C3.95619 0.641207 7.91238 0 12.4429 0C14.8676 0 16.8138 0.288543 18.2814 0.86563C19.4938 1.25035 20.451 2.1801 21.1529 3.65488C21.9186 5.06554 22.3014 6.54031 22.3014 8.07921C22.3014 9.36162 22.0143 10.3876 21.44 11.157C20.8657 11.4776 20.2914 11.6379 19.7171 11.6379C19.3343 11.6379 18.76 11.5738 17.9943 11.4455C19.1429 11.8944 21.3762 13.9142 24.6943 17.5049C28.0762 21.0316 30.9157 24.43 33.2129 27.7001C35.191 25.3918 37.9348 22.4422 41.4443 18.8515C45.0176 15.1966 47.7295 12.728 49.58 11.4455C49.1972 11.5738 48.6229 11.6379 47.8571 11.6379C46.7724 11.6379 46.1343 11.4455 45.9429 11.0608C45.4324 9.65017 45.1771 8.36775 45.1771 7.21358C45.1771 4.71287 46.1981 2.62895 48.24 0.96181C51.1114 0.320604 53.7914 0 56.28 0C59.981 0 63.2991 0.673266 66.2343 2.0198C66.681 3.23809 66.9043 4.55257 66.9043 5.96322C66.9043 8.59217 66.2343 10.644 64.8943 12.1188C62.5971 12.1188 61.1295 12.0226 60.4914 11.8303C60.4276 14.2027 58.29 17.9538 54.0786 23.0835C49.931 28.149 46.4214 31.6756 43.55 33.6634C46.2938 35.3946 49.6757 38.8251 53.6957 43.9547C57.7157 49.0844 59.7257 52.7072 59.7257 54.8232L60.5872 54.727H62.4057H63.65C64.4795 55.3041 65.2452 56.4903 65.9472 58.2857C66.6491 60.0811 67 61.7482 67 63.2871C67 64.5695 66.7129 65.4031 66.1386 65.7878C62.31 67.2626 58.3538 68 54.27 68C51.0157 68 48.0805 67.487 45.4643 66.4611C44.4433 64.0886 43.9329 61.8765 43.9329 59.8246C43.9329 58.414 44.1562 57.2277 44.6029 56.2659C45.7514 55.6888 47.1872 55.4003 48.91 55.4003C44.9538 52.8996 39.7214 47.5776 33.2129 39.4342C31.2986 41.8067 28.6186 44.8204 25.1729 48.4752C21.7271 52.1301 19.2386 54.4064 17.7071 55.3041C18.0262 55.24 18.5367 55.2079 19.2386 55.2079C20.2595 55.2079 20.9933 55.4003 21.44 55.785C21.6314 56.8751 21.7271 57.8689 21.7271 58.7666C21.7271 61.2673 20.5786 63.9925 18.2814 66.942C16.6862 67.6473 14.5805 68 11.9643 68C7.75286 68 3.95619 67.2947 0.574286 65.884C0.191429 64.8581 0 63.8001 0 62.71Z" fill="#5551FF"/>
</svg>
