<svg width="224" height="223" viewBox="0 0 224 223" fill="none" xmlns="http://www.w3.org/2000/svg">
<circle cx="111.999" cy="111.095" r="93" transform="rotate(16.9643 111.999 111.095)" fill="#EE55FF" stroke="#A84DBC" stroke-width="8"/>
<mask id="path-2-outside-1_154_47" maskUnits="userSpaceOnUse" x="18.9326" y="-5.66825" width="207.472" height="168.254" fill="black">
<rect fill="white" x="18.9326" y="-5.66825" width="207.472" height="168.254"/>
<path d="M137.998 28.2468C172.421 38.7475 195.838 68.2241 200.283 101.714C177.903 127.02 142.02 138.409 107.597 127.908C73.1731 117.407 49.7561 87.9295 45.3111 54.4394C67.692 29.1332 103.575 17.7461 137.998 28.2468Z"/>
</mask>
<path d="M137.998 28.2468C172.421 38.7475 195.838 68.2241 200.283 101.714C177.903 127.02 142.02 138.409 107.597 127.908C73.1731 117.407 49.7561 87.9295 45.3111 54.4394C67.692 29.1332 103.575 17.7461 137.998 28.2468Z" fill="#C2D1ED"/>
<path d="M200.283 101.714L206.276 107.013L208.694 104.279L208.214 100.661L200.283 101.714ZM45.3111 54.4394L39.3185 49.1395L36.9004 51.8737L37.3806 55.492L45.3111 54.4394ZM137.998 28.2468L135.664 35.8987C166.981 45.4519 188.304 72.2676 192.353 102.766L200.283 101.714L208.214 100.661C203.371 64.1807 177.862 32.0431 140.332 20.5949L137.998 28.2468ZM200.283 101.714L194.291 96.4137C173.908 119.461 141.248 129.81 109.931 120.256L107.597 127.908L105.262 135.56C142.792 147.009 181.897 134.58 206.276 107.013L200.283 101.714ZM107.597 127.908L109.931 120.256C78.6136 110.703 57.2896 83.8862 53.2415 53.3868L45.3111 54.4394L37.3806 55.492C42.2225 91.9728 67.7327 124.112 105.262 135.56L107.597 127.908ZM45.3111 54.4394L51.3037 59.7393C71.6859 36.6931 104.347 26.3455 135.664 35.8987L137.998 28.2468L140.332 20.5949C102.803 9.14672 63.6982 21.5733 39.3185 49.1395L45.3111 54.4394Z" fill="#A84DBC" mask="url(#path-2-outside-1_154_47)"/>
</svg>
