<svg width="175" height="178" viewBox="0 0 175 178" fill="none" xmlns="http://www.w3.org/2000/svg">
<rect x="20.6395" y="65.7556" width="131.872" height="107.837" fill="#5551FF" stroke="#442685" stroke-width="8"/>
<rect x="4" y="36.1743" width="167" height="37.5814" fill="#5551FF" stroke="#442685" stroke-width="8"/>
<path d="M117.349 2.09218C122.872 -1.54724 130.333 -0.0720706 134.014 5.38706C137.696 10.8462 136.203 18.222 130.681 21.8614L87.964 50.0143L45.2467 21.8614C39.7245 18.222 38.2323 10.8462 41.9138 5.38706C45.5952 -0.0720706 53.0563 -1.54724 58.5785 2.09218L87.964 21.4587L117.349 2.09218Z" fill="#C2D1ED"/>
<path d="M87.5 107.706C79.2527 93.7874 56.0698 97.8518 56.0698 115.289C56.0698 126.768 69.7262 139.099 85.3093 153.93C85.9191 154.513 86.7111 154.802 87.5 154.802C88.2889 154.802 89.0809 154.513 89.6907 153.93C105.334 139.044 118.93 126.771 118.93 115.289C118.93 97.7933 95.6844 93.8922 87.5 107.706Z" fill="#C2D1ED"/>
</svg>
