<svg width="1058" height="1058" viewBox="0 0 1058 1058" fill="none" xmlns="http://www.w3.org/2000/svg">
<path d="M529 0L539.575 327.217L584.296 2.89789L560.609 329.428L638.985 11.5599L581.297 333.825L692.47 25.8911L601.412 340.361L744.164 45.7345L620.733 348.963L793.5 70.8726L639.05 359.538L839.938 101.03L656.161 371.97L882.97 135.876L671.878 386.122L922.124 175.03L686.03 401.84L956.97 218.062L698.462 418.95L987.127 264.5L709.037 437.267L1012.27 313.836L717.639 456.588L1032.11 365.53L724.175 476.703L1046.44 419.015L728.572 497.391L1055.1 473.704L730.783 518.425L1058 529L730.783 539.575L1055.1 584.296L728.572 560.609L1046.44 638.985L724.175 581.297L1032.11 692.47L717.639 601.412L1012.27 744.164L709.037 620.733L987.127 793.5L698.462 639.05L956.97 839.938L686.03 656.161L922.124 882.97L671.878 671.878L882.97 922.124L656.161 686.03L839.938 956.97L639.05 698.462L793.5 987.127L620.733 709.037L744.164 1012.27L601.412 717.639L692.47 1032.11L581.297 724.175L638.985 1046.44L560.609 728.572L584.296 1055.1L539.575 730.783L529 1058L518.425 730.783L473.704 1055.1L497.391 728.572L419.015 1046.44L476.703 724.175L365.53 1032.11L456.588 717.639L313.836 1012.27L437.267 709.037L264.5 987.127L418.95 698.462L218.062 956.97L401.84 686.03L175.03 922.124L386.122 671.878L135.876 882.97L371.97 656.161L101.03 839.938L359.538 639.05L70.8726 793.5L348.963 620.733L45.7345 744.164L340.361 601.412L25.8911 692.47L333.825 581.297L11.5599 638.985L329.428 560.609L2.89789 584.296L327.217 539.575L0 529L327.217 518.425L2.89789 473.704L329.428 497.391L11.5599 419.015L333.825 476.703L25.8911 365.53L340.361 456.588L45.7345 313.836L348.963 437.267L70.8726 264.5L359.538 418.95L101.03 218.062L371.97 401.84L135.876 175.03L386.122 386.122L175.03 135.876L401.84 371.97L218.062 101.03L418.95 359.538L264.5 70.8726L437.267 348.963L313.836 45.7345L456.588 340.361L365.53 25.8911L476.703 333.825L419.015 11.5599L497.391 329.428L473.704 2.89789L518.425 327.217L529 0Z" fill="#FF7700"/>
</svg>
