<svg width="51" height="52" viewBox="0 0 51 52" fill="none" xmlns="http://www.w3.org/2000/svg">
<path d="M0 47.9547C0 45.9444 0.704286 43.9095 2.11286 41.8501C3.27857 41.8501 4.39571 41.8991 5.46429 41.9972C5.46429 40.281 6.99429 37.4861 10.0543 33.6124C13.1143 29.7388 15.7129 27.1155 17.85 25.7426C15.6157 24.2716 12.9929 21.7463 9.98143 18.1669C7.01857 14.5384 5.51286 11.7925 5.46429 9.92928C4.83286 10.1254 3.69143 10.2235 2.04 10.2235C0.777143 8.94861 0.145714 6.93823 0.145714 4.19236C0.145714 3.16266 0.242857 2.25554 0.437143 1.471C3.01143 0.490334 6.02286 0 9.47143 0C11.3171 0 12.7986 0.220651 13.9157 0.661952C14.8386 0.956152 15.5671 1.66714 16.1014 2.79491C16.6843 3.87364 16.9757 5.00141 16.9757 6.17822C16.9757 7.15889 16.7571 7.94342 16.32 8.53183C15.8829 8.77699 15.4457 8.89958 15.0086 8.89958C14.7171 8.89958 14.28 8.85054 13.6971 8.75247C14.5714 9.09571 16.2714 10.6403 18.7971 13.3861C21.3714 16.083 23.5329 18.6818 25.2814 21.1825C26.7871 19.4173 28.8757 17.1617 31.5471 14.4158C34.2671 11.6209 36.3314 9.73314 37.74 8.75247C37.4486 8.85054 37.0114 8.89958 36.4286 8.89958C35.6029 8.89958 35.1171 8.75248 34.9714 8.45828C34.5829 7.37954 34.3886 6.39887 34.3886 5.51627C34.3886 3.60396 35.1657 2.01037 36.72 0.735502C38.9057 0.245167 40.9457 0 42.84 0C45.6571 0 48.1829 0.514851 50.4171 1.54455C50.7571 2.47619 50.9271 3.48137 50.9271 4.56011C50.9271 6.57048 50.4171 8.13956 49.3971 9.26733C47.6486 9.26733 46.5314 9.19378 46.0457 9.04667C45.9971 10.8609 44.37 13.7294 41.1643 17.6521C38.0071 21.5257 35.3357 24.2225 33.15 25.7426C35.2386 27.0665 37.8129 29.6898 40.8729 33.6124C43.9329 37.5351 45.4629 40.3055 45.4629 41.9236L46.1186 41.8501H47.5029H48.45C49.0814 42.2914 49.6643 43.1985 50.1986 44.5714C50.7329 45.9444 51 47.2192 51 48.396C51 49.3767 50.7814 50.0141 50.3443 50.3083C47.43 51.4361 44.4186 52 41.31 52C38.8329 52 36.5986 51.6077 34.6071 50.8232C33.83 49.009 33.4414 47.3173 33.4414 45.7482C33.4414 44.6695 33.6114 43.7624 33.9514 43.0269C34.8257 42.5856 35.9186 42.3649 37.23 42.3649C34.2186 40.4526 30.2357 36.3828 25.2814 30.1556C23.8243 31.9698 21.7843 34.2744 19.1614 37.0693C16.5386 39.8642 14.6443 41.6049 13.4786 42.2914C13.7214 42.2423 14.11 42.2178 14.6443 42.2178C15.4214 42.2178 15.98 42.3649 16.32 42.6591C16.4657 43.4927 16.5386 44.2527 16.5386 44.9392C16.5386 46.8515 15.6643 48.9354 13.9157 51.1909C12.7014 51.7303 11.0986 52 9.10714 52C5.90143 52 3.01143 51.4606 0.437143 50.3819C0.145714 49.5974 0 48.7883 0 47.9547Z" fill="#5551FF"/>
</svg>
